<mxfile host="app.diagrams.net" modified="2024-03-21T20:31:08.574Z" agent="Mozilla/5.0 (Windows NT 10.0; Win64; x64; rv:123.0) Gecko/20100101 Firefox/123.0" etag="qlF8Z6e-ZOjo6gSGtqsK" version="24.0.7" type="device" pages="4">
  <diagram name="Model-model interaction" id="d16VAuzF7vWNj-w75oNI">
    <mxGraphModel dx="1221" dy="701" grid="1" gridSize="10" guides="1" tooltips="1" connect="1" arrows="1" fold="1" page="1" pageScale="1" pageWidth="850" pageHeight="1100" math="0" shadow="0">
      <root>
        <mxCell id="0" />
        <mxCell id="1" parent="0" />
        <mxCell id="UWp4sDZdx3Z2mUTvu2oz-1" value="Policy Model" style="rounded=1;whiteSpace=wrap;html=1;" vertex="1" parent="1">
          <mxGeometry x="80" y="240" width="120" height="100" as="geometry" />
        </mxCell>
        <mxCell id="UWp4sDZdx3Z2mUTvu2oz-2" value="Diffusion Model" style="rounded=1;whiteSpace=wrap;html=1;" vertex="1" parent="1">
          <mxGeometry x="410" y="240" width="120" height="100" as="geometry" />
        </mxCell>
        <mxCell id="UWp4sDZdx3Z2mUTvu2oz-3" value="" style="shape=flexArrow;endArrow=classic;html=1;rounded=0;exitX=1;exitY=0.75;exitDx=0;exitDy=0;entryX=0;entryY=0.75;entryDx=0;entryDy=0;" edge="1" parent="1" source="UWp4sDZdx3Z2mUTvu2oz-1" target="UWp4sDZdx3Z2mUTvu2oz-2">
          <mxGeometry width="50" height="50" relative="1" as="geometry">
            <mxPoint x="290" y="300" as="sourcePoint" />
            <mxPoint x="410" y="310" as="targetPoint" />
          </mxGeometry>
        </mxCell>
        <mxCell id="UWp4sDZdx3Z2mUTvu2oz-4" value="Button Presses" style="edgeLabel;html=1;align=center;verticalAlign=middle;resizable=0;points=[];" vertex="1" connectable="0" parent="UWp4sDZdx3Z2mUTvu2oz-3">
          <mxGeometry y="4" relative="1" as="geometry">
            <mxPoint as="offset" />
          </mxGeometry>
        </mxCell>
        <mxCell id="UWp4sDZdx3Z2mUTvu2oz-5" value="" style="shape=flexArrow;endArrow=classic;html=1;rounded=0;entryX=1;entryY=0.25;entryDx=0;entryDy=0;exitX=0;exitY=0.25;exitDx=0;exitDy=0;" edge="1" parent="1" source="UWp4sDZdx3Z2mUTvu2oz-2" target="UWp4sDZdx3Z2mUTvu2oz-1">
          <mxGeometry width="50" height="50" relative="1" as="geometry">
            <mxPoint x="400" y="390" as="sourcePoint" />
            <mxPoint x="450" y="340" as="targetPoint" />
          </mxGeometry>
        </mxCell>
        <mxCell id="UWp4sDZdx3Z2mUTvu2oz-6" value="Image, Reward" style="edgeLabel;html=1;align=center;verticalAlign=middle;resizable=0;points=[];" vertex="1" connectable="0" parent="UWp4sDZdx3Z2mUTvu2oz-5">
          <mxGeometry x="-0.0667" y="-3" relative="1" as="geometry">
            <mxPoint as="offset" />
          </mxGeometry>
        </mxCell>
      </root>
    </mxGraphModel>
  </diagram>
  <diagram id="Q4av7mYl1ge-nbgcQ0nw" name="Diffusion Training">
    <mxGraphModel dx="1221" dy="701" grid="1" gridSize="10" guides="1" tooltips="1" connect="1" arrows="1" fold="1" page="1" pageScale="1" pageWidth="850" pageHeight="1100" math="0" shadow="0">
      <root>
        <mxCell id="0" />
        <mxCell id="1" parent="0" />
        <mxCell id="3sN6yOFhKGfgh_01iODh-13" value="&lt;div&gt;Button Presses&lt;/div&gt;&lt;div&gt;as Embedding&lt;/div&gt;" style="shape=flexArrow;endArrow=classic;html=1;rounded=0;entryX=0;entryY=0.25;entryDx=0;entryDy=0;" edge="1" parent="1" target="3sN6yOFhKGfgh_01iODh-17">
          <mxGeometry width="50" height="50" relative="1" as="geometry">
            <mxPoint x="310" y="180" as="sourcePoint" />
            <mxPoint x="410" y="290" as="targetPoint" />
          </mxGeometry>
        </mxCell>
        <mxCell id="3sN6yOFhKGfgh_01iODh-1" value="Policy Model" style="rounded=1;whiteSpace=wrap;html=1;" vertex="1" parent="1">
          <mxGeometry x="80" y="240" width="120" height="100" as="geometry" />
        </mxCell>
        <mxCell id="3sN6yOFhKGfgh_01iODh-2" value="Diffusion Model" style="rounded=1;whiteSpace=wrap;html=1;" vertex="1" parent="1">
          <mxGeometry x="690" y="260" width="120" height="100" as="geometry" />
        </mxCell>
        <mxCell id="3sN6yOFhKGfgh_01iODh-8" value="Pong" style="rounded=1;whiteSpace=wrap;html=1;" vertex="1" parent="1">
          <mxGeometry x="410" y="40" width="120" height="100" as="geometry" />
        </mxCell>
        <mxCell id="3sN6yOFhKGfgh_01iODh-9" value="Button Presses" style="shape=flexArrow;endArrow=classic;html=1;rounded=0;exitX=1;exitY=0.25;exitDx=0;exitDy=0;entryX=0;entryY=0.5;entryDx=0;entryDy=0;" edge="1" parent="1" source="3sN6yOFhKGfgh_01iODh-1" target="3sN6yOFhKGfgh_01iODh-8">
          <mxGeometry x="-0.7143" width="50" height="50" relative="1" as="geometry">
            <mxPoint x="570" y="260" as="sourcePoint" />
            <mxPoint x="570" y="160" as="targetPoint" />
            <mxPoint as="offset" />
          </mxGeometry>
        </mxCell>
        <mxCell id="3sN6yOFhKGfgh_01iODh-15" value="&lt;div&gt;Button Presses&lt;/div&gt;&lt;div&gt;as game input&lt;br&gt;&lt;/div&gt;" style="edgeLabel;html=1;align=center;verticalAlign=middle;resizable=0;points=[];" vertex="1" connectable="0" parent="3sN6yOFhKGfgh_01iODh-9">
          <mxGeometry x="0.5129" y="-2" relative="1" as="geometry">
            <mxPoint as="offset" />
          </mxGeometry>
        </mxCell>
        <mxCell id="3sN6yOFhKGfgh_01iODh-16" value="&lt;div&gt;Predict the &lt;i&gt;&lt;b&gt;next&lt;/b&gt;&lt;/i&gt;&amp;nbsp;&lt;/div&gt;&lt;div&gt;image &amp;amp; reward based on&amp;nbsp;&lt;/div&gt;&lt;div&gt;embedded image and button press&lt;br&gt;&lt;/div&gt;" style="shape=flexArrow;endArrow=classic;html=1;rounded=0;exitX=0.5;exitY=1;exitDx=0;exitDy=0;entryX=1;entryY=0.5;entryDx=0;entryDy=0;" edge="1" parent="1" source="3sN6yOFhKGfgh_01iODh-2" target="3sN6yOFhKGfgh_01iODh-18">
          <mxGeometry width="50" height="50" relative="1" as="geometry">
            <mxPoint x="610" y="430" as="sourcePoint" />
            <mxPoint x="660" y="430" as="targetPoint" />
          </mxGeometry>
        </mxCell>
        <mxCell id="3sN6yOFhKGfgh_01iODh-12" value="Image &amp;amp; Reward" style="shape=flexArrow;endArrow=classic;html=1;rounded=0;exitX=0.5;exitY=1;exitDx=0;exitDy=0;entryX=0.5;entryY=0;entryDx=0;entryDy=0;" edge="1" parent="1" source="3sN6yOFhKGfgh_01iODh-8" target="3sN6yOFhKGfgh_01iODh-17">
          <mxGeometry width="50" height="50" relative="1" as="geometry">
            <mxPoint x="610" y="170" as="sourcePoint" />
            <mxPoint x="470" y="270" as="targetPoint" />
          </mxGeometry>
        </mxCell>
        <mxCell id="3sN6yOFhKGfgh_01iODh-17" value="Training Data" style="rounded=0;whiteSpace=wrap;html=1;glass=0;fillColor=#fff2cc;strokeColor=#d6b656;" vertex="1" parent="1">
          <mxGeometry x="410" y="260" width="120" height="100" as="geometry" />
        </mxCell>
        <mxCell id="3sN6yOFhKGfgh_01iODh-18" value="&lt;div&gt;Model&#39;s&lt;/div&gt;&lt;div&gt;Predictions&lt;br&gt;&lt;/div&gt;" style="rounded=0;whiteSpace=wrap;html=1;glass=0;fillColor=#fff2cc;strokeColor=#d6b656;" vertex="1" parent="1">
          <mxGeometry x="410" y="450" width="120" height="60" as="geometry" />
        </mxCell>
        <mxCell id="3sN6yOFhKGfgh_01iODh-19" value="&lt;div&gt;Feed button press &amp;amp;&lt;/div&gt;&lt;div&gt;an image as&lt;/div&gt;&lt;div&gt;embeddings&lt;br&gt;&lt;/div&gt;" style="shape=flexArrow;endArrow=classic;html=1;rounded=0;exitX=1;exitY=0.5;exitDx=0;exitDy=0;" edge="1" parent="1">
          <mxGeometry width="50" height="50" relative="1" as="geometry">
            <mxPoint x="530" y="310" as="sourcePoint" />
            <mxPoint x="690" y="310" as="targetPoint" />
          </mxGeometry>
        </mxCell>
        <mxCell id="3sN6yOFhKGfgh_01iODh-22" value="&lt;div&gt;Compare and use gradient descent&lt;/div&gt;&lt;div&gt;to train diffusion model&lt;br&gt;&lt;/div&gt;&lt;div&gt;(PyTorch will handle this)&lt;br&gt;&lt;/div&gt;" style="shape=flexArrow;endArrow=classic;startArrow=classic;html=1;rounded=0;entryX=0.5;entryY=1;entryDx=0;entryDy=0;exitX=0.5;exitY=0;exitDx=0;exitDy=0;" edge="1" parent="1" source="3sN6yOFhKGfgh_01iODh-18" target="3sN6yOFhKGfgh_01iODh-17">
          <mxGeometry width="100" height="100" relative="1" as="geometry">
            <mxPoint x="580" y="450" as="sourcePoint" />
            <mxPoint x="680" y="350" as="targetPoint" />
          </mxGeometry>
        </mxCell>
        <mxCell id="CAlCX38WMnbM8Q9q8Cee-3" value="" style="endArrow=none;dashed=1;html=1;rounded=0;" edge="1" parent="1">
          <mxGeometry width="50" height="50" relative="1" as="geometry">
            <mxPoint x="130" y="550" as="sourcePoint" />
            <mxPoint x="800" y="90" as="targetPoint" />
          </mxGeometry>
        </mxCell>
        <mxCell id="CAlCX38WMnbM8Q9q8Cee-4" value="Data Collection" style="text;html=1;align=center;verticalAlign=middle;resizable=0;points=[];autosize=1;strokeColor=none;fillColor=none;" vertex="1" parent="1">
          <mxGeometry x="610" y="68" width="100" height="30" as="geometry" />
        </mxCell>
        <mxCell id="CAlCX38WMnbM8Q9q8Cee-5" value="Training" style="text;html=1;align=center;verticalAlign=middle;resizable=0;points=[];autosize=1;strokeColor=none;fillColor=none;" vertex="1" parent="1">
          <mxGeometry x="725" y="158" width="70" height="30" as="geometry" />
        </mxCell>
      </root>
    </mxGraphModel>
  </diagram>
  <diagram name="Policy Training on Pong" id="eDifLoER4j37_Y5Nghax">
    <mxGraphModel dx="1221" dy="701" grid="1" gridSize="10" guides="1" tooltips="1" connect="1" arrows="1" fold="1" page="1" pageScale="1" pageWidth="850" pageHeight="1100" math="0" shadow="0">
      <root>
        <mxCell id="XV1GPpyf1Ktki-aaEPG--0" />
        <mxCell id="XV1GPpyf1Ktki-aaEPG--1" parent="XV1GPpyf1Ktki-aaEPG--0" />
        <mxCell id="XV1GPpyf1Ktki-aaEPG--3" value="Policy Model" style="rounded=1;whiteSpace=wrap;html=1;" vertex="1" parent="XV1GPpyf1Ktki-aaEPG--1">
          <mxGeometry x="130" y="260" width="120" height="100" as="geometry" />
        </mxCell>
        <mxCell id="XV1GPpyf1Ktki-aaEPG--5" value="Pong" style="rounded=1;whiteSpace=wrap;html=1;" vertex="1" parent="XV1GPpyf1Ktki-aaEPG--1">
          <mxGeometry x="130" y="10" width="120" height="100" as="geometry" />
        </mxCell>
        <mxCell id="XV1GPpyf1Ktki-aaEPG--6" value="Predict &quot;good&quot;&lt;br&gt;&lt;div&gt;Button Presses&lt;/div&gt;&lt;div&gt;given current image&lt;br&gt;&lt;/div&gt;" style="shape=flexArrow;endArrow=classic;html=1;rounded=0;exitX=0.75;exitY=0;exitDx=0;exitDy=0;entryX=0.75;entryY=1;entryDx=0;entryDy=0;" edge="1" parent="XV1GPpyf1Ktki-aaEPG--1" source="XV1GPpyf1Ktki-aaEPG--3" target="XV1GPpyf1Ktki-aaEPG--5">
          <mxGeometry x="-0.3333" width="50" height="50" relative="1" as="geometry">
            <mxPoint x="570" y="260" as="sourcePoint" />
            <mxPoint x="570" y="160" as="targetPoint" />
            <mxPoint as="offset" />
          </mxGeometry>
        </mxCell>
        <mxCell id="XV1GPpyf1Ktki-aaEPG--9" value="Images &amp;amp; Reward" style="shape=flexArrow;endArrow=classic;html=1;rounded=0;exitX=1;exitY=0.5;exitDx=0;exitDy=0;entryX=0.5;entryY=0;entryDx=0;entryDy=0;" edge="1" parent="XV1GPpyf1Ktki-aaEPG--1" source="XV1GPpyf1Ktki-aaEPG--5" target="XV1GPpyf1Ktki-aaEPG--10">
          <mxGeometry width="50" height="50" relative="1" as="geometry">
            <mxPoint x="610" y="170" as="sourcePoint" />
            <mxPoint x="470" y="270" as="targetPoint" />
          </mxGeometry>
        </mxCell>
        <mxCell id="XV1GPpyf1Ktki-aaEPG--10" value="Training Data" style="rounded=0;whiteSpace=wrap;html=1;glass=0;fillColor=#fff2cc;strokeColor=#d6b656;" vertex="1" parent="XV1GPpyf1Ktki-aaEPG--1">
          <mxGeometry x="410" y="260" width="120" height="100" as="geometry" />
        </mxCell>
        <mxCell id="XV1GPpyf1Ktki-aaEPG--12" value="&lt;div&gt;Use to&amp;nbsp;&lt;/div&gt;&lt;div&gt;train policy model&lt;/div&gt;&lt;div&gt;between games&lt;br&gt;&lt;/div&gt;" style="shape=flexArrow;endArrow=classic;html=1;rounded=0;exitX=0;exitY=0.5;exitDx=0;exitDy=0;" edge="1" parent="XV1GPpyf1Ktki-aaEPG--1" target="XV1GPpyf1Ktki-aaEPG--3" source="XV1GPpyf1Ktki-aaEPG--10">
          <mxGeometry width="50" height="50" relative="1" as="geometry">
            <mxPoint x="530" y="310" as="sourcePoint" />
            <mxPoint x="690" y="310" as="targetPoint" />
          </mxGeometry>
        </mxCell>
        <mxCell id="Z9Cn_xTSYoTPBaIWQFH_-0" value="Image" style="shape=flexArrow;endArrow=classic;html=1;rounded=0;exitX=0.25;exitY=1;exitDx=0;exitDy=0;entryX=0.25;entryY=0;entryDx=0;entryDy=0;" edge="1" parent="XV1GPpyf1Ktki-aaEPG--1" source="XV1GPpyf1Ktki-aaEPG--5" target="XV1GPpyf1Ktki-aaEPG--3">
          <mxGeometry x="-0.4667" width="50" height="50" relative="1" as="geometry">
            <mxPoint x="660" y="170" as="sourcePoint" />
            <mxPoint x="660" y="290" as="targetPoint" />
            <mxPoint as="offset" />
          </mxGeometry>
        </mxCell>
      </root>
    </mxGraphModel>
  </diagram>
  <diagram name="Policy Training on Diffusion" id="zRra3sequ2T7i5Ply1M4">
    <mxGraphModel dx="1221" dy="701" grid="1" gridSize="10" guides="1" tooltips="1" connect="1" arrows="1" fold="1" page="1" pageScale="1" pageWidth="850" pageHeight="1100" math="0" shadow="0">
      <root>
        <mxCell id="yn0magC3CIj8xbbuzHjT-0" />
        <mxCell id="yn0magC3CIj8xbbuzHjT-1" parent="yn0magC3CIj8xbbuzHjT-0" />
        <mxCell id="yn0magC3CIj8xbbuzHjT-2" value="Policy Model" style="rounded=1;whiteSpace=wrap;html=1;" vertex="1" parent="yn0magC3CIj8xbbuzHjT-1">
          <mxGeometry x="130" y="260" width="120" height="100" as="geometry" />
        </mxCell>
        <mxCell id="yn0magC3CIj8xbbuzHjT-3" value="Diffusion model" style="rounded=1;whiteSpace=wrap;html=1;" vertex="1" parent="yn0magC3CIj8xbbuzHjT-1">
          <mxGeometry x="130" y="10" width="120" height="100" as="geometry" />
        </mxCell>
        <mxCell id="yn0magC3CIj8xbbuzHjT-4" value="Predict &quot;good&quot;&lt;br&gt;&lt;div&gt;Button Presses&lt;/div&gt;&lt;div&gt;given current image&lt;br&gt;&lt;/div&gt;" style="shape=flexArrow;endArrow=classic;html=1;rounded=0;exitX=0.75;exitY=0;exitDx=0;exitDy=0;entryX=0.75;entryY=1;entryDx=0;entryDy=0;" edge="1" parent="yn0magC3CIj8xbbuzHjT-1" source="yn0magC3CIj8xbbuzHjT-2" target="yn0magC3CIj8xbbuzHjT-3">
          <mxGeometry x="-0.3333" width="50" height="50" relative="1" as="geometry">
            <mxPoint x="570" y="260" as="sourcePoint" />
            <mxPoint x="570" y="160" as="targetPoint" />
            <mxPoint as="offset" />
          </mxGeometry>
        </mxCell>
        <mxCell id="yn0magC3CIj8xbbuzHjT-5" value="Images &amp;amp; Reward" style="shape=flexArrow;endArrow=classic;html=1;rounded=0;exitX=1;exitY=0.5;exitDx=0;exitDy=0;entryX=0.5;entryY=0;entryDx=0;entryDy=0;" edge="1" parent="yn0magC3CIj8xbbuzHjT-1" source="yn0magC3CIj8xbbuzHjT-3" target="yn0magC3CIj8xbbuzHjT-6">
          <mxGeometry width="50" height="50" relative="1" as="geometry">
            <mxPoint x="610" y="170" as="sourcePoint" />
            <mxPoint x="470" y="270" as="targetPoint" />
          </mxGeometry>
        </mxCell>
        <mxCell id="yn0magC3CIj8xbbuzHjT-6" value="Training Data" style="rounded=0;whiteSpace=wrap;html=1;glass=0;fillColor=#fff2cc;strokeColor=#d6b656;" vertex="1" parent="yn0magC3CIj8xbbuzHjT-1">
          <mxGeometry x="410" y="260" width="120" height="100" as="geometry" />
        </mxCell>
        <mxCell id="yn0magC3CIj8xbbuzHjT-7" value="&lt;div&gt;Use to&amp;nbsp;&lt;/div&gt;&lt;div&gt;train policy model&lt;/div&gt;&lt;div&gt;between games&lt;br&gt;&lt;/div&gt;" style="shape=flexArrow;endArrow=classic;html=1;rounded=0;exitX=0;exitY=0.5;exitDx=0;exitDy=0;" edge="1" parent="yn0magC3CIj8xbbuzHjT-1" source="yn0magC3CIj8xbbuzHjT-6" target="yn0magC3CIj8xbbuzHjT-2">
          <mxGeometry width="50" height="50" relative="1" as="geometry">
            <mxPoint x="530" y="310" as="sourcePoint" />
            <mxPoint x="690" y="310" as="targetPoint" />
          </mxGeometry>
        </mxCell>
        <mxCell id="yn0magC3CIj8xbbuzHjT-8" value="Image" style="shape=flexArrow;endArrow=classic;html=1;rounded=0;exitX=0.25;exitY=1;exitDx=0;exitDy=0;entryX=0.25;entryY=0;entryDx=0;entryDy=0;" edge="1" parent="yn0magC3CIj8xbbuzHjT-1" source="yn0magC3CIj8xbbuzHjT-3" target="yn0magC3CIj8xbbuzHjT-2">
          <mxGeometry x="-0.4667" width="50" height="50" relative="1" as="geometry">
            <mxPoint x="660" y="170" as="sourcePoint" />
            <mxPoint x="660" y="290" as="targetPoint" />
            <mxPoint as="offset" />
          </mxGeometry>
        </mxCell>
      </root>
    </mxGraphModel>
  </diagram>
</mxfile>
